<svg xmlns="http://www.w3.org/2000/svg" xmlns:xlink="http://www.w3.org/1999/xlink" width="134px" height="36px" viewBox="0 0 134 36" version="1.1">
  <desc>Created with Sketch.</desc>
  <defs/>
  <g id="Page-1" stroke="none" stroke-width="1" fill="none" fill-rule="evenodd">
    <g id="Menu-Mobile" transform="translate(-96.000000, -18.000000)" fill="#FFFFFF">
      <g id="LHS-Menu">
        <g id="Group">
          <g id="logo-ts" transform="translate(96.000000, 18.000000)">
            <g id="logo">
              <path d="M19.7860512,16.1719642 L19.7860512,1.02679138 C19.7860512,0.513395688 19.2721278,3.64789577e-15 18.7582044,0 L8.99365963,0 C4.62531067,0 3.9021229e-16,3.59376982 0,9.80585764 C3.90212287e-16,16.1719642 4.62531067,19.765734 8.99365963,19.765734 L16.1885873,19.765734 L16.1885873,34.9109068 C16.1885873,35.4243025 16.7025107,35.9376982 17.2164341,35.9376982 L26.9809789,35.9376982 C31.3493278,35.9376982 35.9746385,32.6006262 35.9746385,26.1318405 C35.9746385,19.765734 31.3493278,16.1719642 26.9809789,16.1719642 L19.7860512,16.1719642 Z M3.59746385,9.75451807 C3.59746385,6.42055573 6.16708089,3.59376982 8.99365963,3.59376982 L16.1885873,3.59376982 L16.1885873,16.1719642 L8.99365963,16.1719642 C6.16708089,16.1719642 3.59746385,13.3482879 3.59746385,9.75451807 Z M19.7860512,32.3439283 L19.7860512,19.765734 L26.9809789,19.765734 C29.8075576,19.765734 32.3771747,22.5894103 32.3771747,26.1831801 C32.3771747,29.7769499 29.8075576,32.3439283 26.9809789,32.3439283 L19.7860512,32.3439283 Z" id="Shape"/>
            </g>
            <path d="M41.3019686,11.8476323 L41.3019686,9.048599 C41.3019686,7.91450792 39.5628517,7.89037833 39.5628517,9.048599 L39.5628517,11.8476323 L37.9686613,11.8476323 C36.9058677,11.8476323 36.8334045,13.3677969 37.9686613,13.3677969 L39.5628517,13.3677969 L39.5628517,19.8827882 C39.5628517,22.1750999 40.2633293,24.2985045 43.1618574,24.2985045 C43.8140262,24.2985045 44.4178862,24.2261157 45.0217462,23.8883014 C46.1086942,23.2850614 45.311599,21.8614152 44.2971142,22.4405255 C44.0555702,22.5853031 43.5241734,22.7059511 43.1618574,22.7059511 C41.5193582,22.7059511 41.3019686,21.2581752 41.3019686,19.8827882 L41.3019686,13.3677969 L43.9347982,13.3677969 C45.0217462,13.3677969 45.0217462,11.8476323 43.9347982,11.8476323 L41.3019686,11.8476323 Z M55.2873662,11.8958915 C54.1038006,11.5822067 52.799463,11.5580771 51.6642062,11.8958915 C47.1714878,13.1506305 46.036231,18.7004379 48.6449062,22.1268408 C49.780163,23.550487 51.6642062,24.2743749 53.5482494,24.2743749 C55.1182854,24.2985045 56.7366302,23.8641718 57.8477327,22.8265991 C58.7897543,21.8614152 57.5337255,20.8721017 56.6883214,21.6442488 C55.7462998,22.3681367 54.5868886,22.6576919 53.4757862,22.6576919 C51.0603462,22.6576919 49.3695382,21.0168793 49.055531,19.0382523 L58.5965191,19.0382523 C59.5868495,19.0382523 59.8283935,18.459142 59.7800847,17.9282908 L59.7800847,17.9524204 C59.7317759,14.863832 58.0409679,12.643909 55.3115206,11.8958915 L55.2873662,11.8958915 Z M52.195603,13.4884449 C53.0168526,13.2471489 54.007183,13.2471489 54.8042782,13.4643153 L54.7801238,13.4643153 C56.664167,13.9469073 57.9201959,15.5153311 58.0892767,17.5663469 L48.9830678,17.5663469 C49.1279942,15.6118495 50.263251,13.9951665 52.195603,13.4884449 L52.195603,13.4884449 Z M64.4418839,8.92795101 C64.4418839,8.46948866 64.0554135,8.1075447 63.5723255,8.1075447 C63.0409287,8.1075447 62.6786127,8.46948866 62.6786127,8.92795101 L62.6786127,23.4057094 C62.6786127,23.8641718 63.0409287,24.2261157 63.5723255,24.2261157 C64.0554135,24.2261157 64.4418839,23.8641718 64.4418839,23.4057094 L64.4418839,8.92795101 Z M69.3210727,8.92795101 C69.3210727,8.46948866 68.9346023,8.1075447 68.4515143,8.1075447 C67.9201175,8.1075447 67.5578015,8.46948866 67.5578015,8.92795101 L67.5578015,23.4057094 C67.5578015,23.8641718 67.9201175,24.2261157 68.4515143,24.2261157 C68.9346023,24.2261157 69.3210727,23.8641718 69.3210727,23.4057094 L69.3210727,8.92795101 Z M71.6882039,21.4029528 C72.1712919,23.8159126 75.2630552,24.3226341 77.2678704,24.3226341 C79.2726856,24.3226341 82.7509192,23.5746166 82.7509192,20.5342873 C82.7509192,17.5180877 79.9248544,17.2767917 77.2678704,17.0354957 C75.3355184,16.8907181 73.5480928,16.9148477 73.5480928,15.3705535 C73.5480928,13.8745185 75.6495256,13.2712785 77.0504808,13.2712785 C78.1374288,13.2712785 80.1663984,13.3677969 80.6977952,14.7673136 C81.0118024,15.6842383 82.678456,15.2257759 82.3402944,14.139944 C81.4948904,11.9682803 78.9103696,11.6545955 77.0504808,11.6545955 C74.7316584,11.6545955 71.7848215,12.764557 71.7848215,15.3464239 C71.7848215,18.3143644 74.586732,18.5315308 77.1954072,18.7728267 C79.1519136,18.9176043 80.987648,18.9899931 80.987648,20.5342873 C80.987648,22.1992295 78.451436,22.7300807 77.2678704,22.7300807 C75.5045992,22.7300807 73.620556,22.1750999 73.3790119,21.0892681 C73.1616223,19.8827882 71.3983511,20.3895097 71.6882039,21.4029528 L71.6882039,21.4029528 Z M94.3450313,14.5984064 C95.0213545,15.3946831 96.3256921,14.38124 95.6252145,13.5849633 C94.3208769,12.1130579 92.9199217,11.5339475 91.1808049,11.5339475 C87.509336,11.5339475 84.973124,13.9710369 84.7798888,17.5422173 C84.6832712,19.3036779 85.1905136,21.0168793 86.2049984,22.2716183 C87.4127184,23.671135 89.2484528,24.4191525 91.0600329,24.4191525 C92.8474585,24.4191525 94.6590385,23.7193942 95.8426041,22.2716183 C96.6638537,21.330564 95.2145897,20.3895097 94.6107297,21.2099161 C93.7653257,22.3681367 92.3643705,22.8024695 91.0841873,22.8024695 C89.7798496,22.8024695 88.4513576,22.2474887 87.6059536,21.2099161 C86.8813216,20.3412505 86.5673144,19.1106411 86.5673144,18.0248092 C86.5673144,15.2740351 88.35474,13.1265009 90.9875697,13.1265009 C92.1952897,13.1265009 93.4271641,13.5367041 94.3450313,14.5984064 L94.3450313,14.5984064 Z M104.103409,24.3467637 C106.011607,24.3467637 107.750723,23.5987462 108.934289,22.1750999 C109.997083,20.8962313 110.480171,19.3519371 110.383553,17.5422173 C110.166163,14.8397024 108.523664,12.6197794 105.890835,11.8717619 C105.26282,11.7028547 104.683115,11.6545955 104.103409,11.6545955 C103.499549,11.6545955 102.84738,11.7028547 102.267675,11.8717619 C99.6106905,12.6197794 98.0406545,14.863832 97.7991105,17.5422173 C97.7266473,19.3519371 98.1855809,20.8962313 99.2725289,22.1750999 C100.456095,23.5987462 102.171057,24.3467637 104.103409,24.3467637 L104.103409,24.3467637 Z M105.407747,13.4643153 C107.460871,13.9951665 108.644436,15.9014046 108.644436,18.097198 C108.644436,19.1347707 108.257966,20.2929914 107.581643,21.1133977 C106.736239,22.0785816 105.407747,22.7059511 104.103409,22.7059511 C102.774917,22.7059511 101.494734,22.1268408 100.64933,21.1133977 C99.9246977,20.2688618 99.5865361,19.1347707 99.5865361,18.0489388 C99.5865361,15.877275 100.770102,13.9951665 102.799071,13.4643153 C103.161387,13.3677969 103.620321,13.2954081 104.079255,13.2954081 C104.538188,13.2954081 105.021276,13.3677969 105.407747,13.4643153 L105.407747,13.4643153 Z M114.900426,12.643909 C114.900426,11.4856883 113.185463,11.5822067 113.185463,12.643909 L113.185463,23.3333206 C113.185463,23.8400422 113.547779,24.1778565 114.079176,24.1778565 C114.53811,24.1778565 114.948735,23.8400422 114.948735,23.3333206 L114.948735,17.8800316 C114.948735,15.4429423 116.011528,13.4643153 118.499431,13.4643153 C119.054983,13.4643153 119.417299,13.1747601 119.417299,12.643909 C119.417299,12.0889283 119.054983,11.7993731 118.499431,11.7993731 C117.122631,11.7993731 115.673367,12.2337058 114.900426,13.8503889 L114.900426,12.643909 Z M128.765051,11.8958915 C127.581486,11.5822067 126.277148,11.5580771 125.141891,11.8958915 C120.649173,13.1506305 119.513916,18.7004379 122.122591,22.1268408 C123.257848,23.550487 125.141891,24.2743749 127.025935,24.2743749 C128.595971,24.2985045 130.214315,23.8641718 131.325418,22.8265991 C132.26744,21.8614152 131.011411,20.8721017 130.166007,21.6442488 C129.223985,22.3681367 128.064574,22.6576919 126.953471,22.6576919 C124.538031,22.6576919 122.847223,21.0168793 122.533216,19.0382523 L132.074204,19.0382523 C133.064535,19.0382523 133.306079,18.459142 133.25777,17.9282908 L133.25777,17.9524204 C133.209461,14.863832 131.518653,12.643909 128.789206,11.8958915 L128.765051,11.8958915 Z M125.673288,13.4884449 C126.494538,13.2471489 127.484868,13.2471489 128.281963,13.4643153 L128.257809,13.4643153 C130.141852,13.9469073 131.397881,15.5153311 131.566962,17.5663469 L122.460753,17.5663469 C122.605679,15.6118495 123.740936,13.9951665 125.673288,13.4884449 L125.673288,13.4884449 Z" id="tellscore-copy"/>
          </g>
        </g>
      </g>
    </g>
  </g>
</svg>
