<svg xmlns="http://www.w3.org/2000/svg" xmlns:xlink="http://www.w3.org/1999/xlink" width="50px" height="50px" viewBox="0 0 50 50" version="1.1">
  <title>Icon-Menu/ MKT/ Campaign Public (Normal)</title>
  <g id="Page-1" stroke="none" stroke-width="1" fill="none" fill-rule="evenodd">
    <g id="3.Menu-MKT" transform="translate(-128.000000, -459.000000)" fill="#FFFFFF">
      <g id="Group-2" transform="translate(16.000000, 110.000000)">
        <g id="menu-inf" transform="translate(0.000000, 149.000000)">
          <g id="Add-campaign" transform="translate(97.000000, 200.000000)">
            <g id="Icon-Menu/-MKT/-Campaign-Public-(Normal)" transform="translate(15.000000, 0.000000)">
              <path d="M25,0 C38.8071187,2.84217094e-14 50,11.1928813 50,25 C50,38.8071187 38.8071187,50 25,50 C11.1928813,50 0,38.8071187 0,25 C0,11.1928813 11.1928813,2.84217094e-14 25,2.84217094e-14 L25,0 Z M25,1 C38.254834,1 49,11.745166 49,25 C49,38.254834 38.254834,49 25,49 C11.745166,49 1,38.254834 1,25 C1,11.745166 11.745166,1 25,1 L25,1 Z" id="menu-user-dash-board"/>
              <path d="M33.6882574,21.2108951 C35.4010652,25.9842283 35.6958271,31.3298634 32.9937741,32.3274227 C32.15331,32.63771 31.2794594,32.4459191 30.4216884,31.9022994 L23.4993766,30.4225065 L21.4389447,31.1831884 C21.6019276,31.3421729 21.7322263,31.539646 21.8141158,31.7678595 L22.5805072,33.903675 C22.8709488,34.7130914 22.4619048,35.6071909 21.6543943,35.9053123 C20.8524746,36.2013695 19.9646958,35.7789533 19.676499,34.9757932 L18.9101077,32.8399777 C18.7823293,32.4838791 18.7899375,32.1113899 18.9072998,31.7804699 C17.018814,31.757685 15.2676158,30.6109391 14.6041652,28.7620037 L14.266943,27.8222171 C13.402811,25.4140137 14.7071675,22.7152051 17.1617941,21.808992 L20.028798,20.7505353 L24.4583385,15.0354559 C24.772085,14.1125429 25.3090356,13.4398151 26.1062983,13.1454771 C28.8083513,12.1479178 31.9754496,16.437562 33.6882574,21.2108951 Z M32.0886873,21.8103025 C30.3309166,16.9116645 27.7060333,14.3685957 26.6809812,14.7470302 C25.7148401,15.1037156 25.3019426,18.3780521 26.732601,22.8608787 L26.732601,22.8608787 L27.7419435,22.4882439 C28.1896674,22.3229506 28.6895169,22.5508235 28.8511025,23.001138 C28.972009,23.4620361 28.7349119,23.9664136 28.326462,24.1172075 L28.326462,24.1172075 L27.3171195,24.4898422 C29.0605651,28.8527578 31.4532381,31.0957523 32.4193791,30.7390668 C33.4405038,30.3620822 33.8464581,26.7089406 32.0886873,21.8103025 Z" id="Menu/-Campaign-Announce"/>
            </g>
          </g>
        </g>
      </g>
    </g>
  </g>
</svg>
