<svg xmlns="http://www.w3.org/2000/svg" xmlns:xlink="http://www.w3.org/1999/xlink" width="50px" height="50px" viewBox="0 0 50 50" version="1.1">
  <title>Icon-Menu/ MKT/ Dashboard (Normal)</title>
  <defs>
    <linearGradient x1="50%" y1="34.2480629%" x2="50%" y2="100%" id="linearGradient-1">
      <stop stop-color="#DD4BFF" offset="0%"/>
      <stop stop-color="#CF00FF" offset="100%"/>
    </linearGradient>
  </defs>
  <g id="Page-1" stroke="none" stroke-width="1" fill="none" fill-rule="evenodd">
    <g id="3.Menu-MKT" transform="translate(-35.000000, -259.000000)">
      <g id="Group-2" transform="translate(16.000000, 110.000000)">
        <g id="menu-inf" transform="translate(0.000000, 149.000000)">
          <g id="menu-user-dash-board" transform="translate(15.000000, 0.000000)">
            <g id="Group" transform="translate(4.000000, 0.000000)">
              <path d="M25,0 C38.8071187,2.84217094e-14 50,11.1928813 50,25 C50,38.8071187 38.8071187,50 25,50 C11.1928813,50 0,38.8071187 0,25 C0,11.1928813 11.1928813,2.84217094e-14 25,2.84217094e-14 L25,0 Z" id="menu-user-job" fill="url(#linearGradient-1)"/>
              <path d="M19,29 C20.1045695,29 21,29.8954305 21,31 C21,32.1045695 20.1045695,33 19,33 C17.8954305,33 17,32.1045695 17,31 C17,29.8954305 17.8954305,29 19,29 Z M25,29 C26.1045695,29 27,29.8954305 27,31 C27,32.1045695 26.1045695,33 25,33 C23.8954305,33 23,32.1045695 23,31 C23,29.8954305 23.8954305,29 25,29 Z M31,29 C32.1045695,29 33,29.8954305 33,31 C33,32.1045695 32.1045695,33 31,33 C29.8954305,33 29,32.1045695 29,31 C29,29.8954305 29.8954305,29 31,29 Z M19,23 C20.1045695,23 21,23.8954305 21,25 C21,26.1045695 20.1045695,27 19,27 C17.8954305,27 17,26.1045695 17,25 C17,23.8954305 17.8954305,23 19,23 Z M25,23 C26.1045695,23 27,23.8954305 27,25 C27,26.1045695 26.1045695,27 25,27 C23.8954305,27 23,26.1045695 23,25 C23,23.8954305 23.8954305,23 25,23 Z M31,23 C32.1045695,23 33,23.8954305 33,25 C33,26.1045695 32.1045695,27 31,27 C29.8954305,27 29,26.1045695 29,25 C29,23.8954305 29.8954305,23 31,23 Z M19,17 C20.1045695,17 21,17.8954305 21,19 C21,20.1045695 20.1045695,21 19,21 C17.8954305,21 17,20.1045695 17,19 C17,17.8954305 17.8954305,17 19,17 Z M25,17 C26.1045695,17 27,17.8954305 27,19 C27,20.1045695 26.1045695,21 25,21 C23.8954305,21 23,20.1045695 23,19 C23,17.8954305 23.8954305,17 25,17 Z M31,17 C32.1045695,17 33,17.8954305 33,19 C33,20.1045695 32.1045695,21 31,21 C29.8954305,21 29,20.1045695 29,19 C29,17.8954305 29.8954305,17 31,17 Z" id="menu-user-dash-board" fill="#FFFFFF"/>
            </g>
          </g>
        </g>
      </g>
    </g>
  </g>
</svg>
