<svg xmlns="http://www.w3.org/2000/svg" xmlns:xlink="http://www.w3.org/1999/xlink" width="50px" height="50px" viewBox="0 0 50 50" version="1.1">
  <title>Icon-Menu/ MKT/ Account (Normal)</title>
  <g id="Page-1" stroke="none" stroke-width="1" fill="none" fill-rule="evenodd">
    <g id="3.Menu-MKT" transform="translate(-128.000000, -259.000000)" fill="#FFFFFF">
      <g id="Group-2" transform="translate(16.000000, 110.000000)">
        <g id="menu-inf" transform="translate(0.000000, 149.000000)">
          <g id="Icon-Menu/-MKT/-Account-(Normal)" transform="translate(112.000000, 0.000000)">
            <path d="M25,0 C38.8071187,2.84217094e-14 50,11.1928813 50,25 C50,38.8071187 38.8071187,50 25,50 C11.1928813,50 0,38.8071187 0,25 C0,11.1928813 11.1928813,2.84217094e-14 25,2.84217094e-14 L25,0 Z M25,1 C38.254834,1 49,11.745166 49,25 C49,38.254834 38.254834,49 25,49 C11.745166,49 1,38.254834 1,25 C1,11.745166 11.745166,1 25,1 L25,1 Z" id="menu-user-dash-board"/>
            <path d="M25.0002919,25 C28.9220082,25 32,28.4119464 32,32.510176 L32,32.510176 L32,34.0573263 C32,34.5779369 31.6066219,35 31.1213939,35 L31.1213939,35 L18.8786061,35 C18.3933781,35 18,34.5779369 18,34.0573263 L18,34.0573263 L18,32.510176 C18,28.3690407 21.1403115,25 25.0002919,25 Z M24.9999744,14 C27.7569571,14 30,16.2429518 30,19 C29.9999487,21.7570482 27.7570084,24 24.9999744,24 C22.2429403,24 20,21.7570482 20,19 C20,16.2429518 22.2429916,14 24.9999744,14 Z" id="menu-user-message"/>
          </g>
        </g>
      </g>
    </g>
  </g>
</svg>
