<svg xmlns="http://www.w3.org/2000/svg" xmlns:xlink="http://www.w3.org/1999/xlink" width="50px" height="50px" viewBox="0 0 50 50" version="1.1">
  <title>Icon-Menu/ MKT/ Campaign Invite-Only (Normal)</title>
  <g id="Page-1" stroke="none" stroke-width="1" fill="none" fill-rule="evenodd">
    <g id="3.Menu-MKT" transform="translate(-35.000000, -459.000000)" fill="#FFFFFF">
      <g id="Group-2" transform="translate(16.000000, 110.000000)">
        <g id="menu-inf" transform="translate(0.000000, 149.000000)">
          <g id="menu-campaign" transform="translate(0.000000, 200.000000)">
            <g id="Group" transform="translate(19.000000, 0.000000)">
              <path d="M25,0 C38.8071187,2.84217094e-14 50,11.1928813 50,25 C50,38.8071187 38.8071187,50 25,50 C11.1928813,50 0,38.8071187 0,25 C0,11.1928813 11.1928813,2.84217094e-14 25,2.84217094e-14 L25,0 Z M25,1 C38.254834,1 49,11.745166 49,25 C49,38.254834 38.254834,49 25,49 C11.745166,49 1,38.254834 1,25 C1,11.745166 11.745166,1 25,1 L25,1 Z" id="menu-user-dash-board"/>
              <path d="M38,21.3589744 L38,31.1939103 C38,33.2948718 36.2809917,35 34.162928,35 L34.162928,35 L15.837072,35 C13.7190083,35 12,33.2948718 12,31.1939103 L12,31.1939103 L12,21.3589744 L24.2172373,28.7580128 C24.4628099,28.9102564 24.7390791,28.9711538 24.9846517,28.9711538 C25.2302243,28.9711538 25.5064935,28.9102564 25.7520661,28.7580128 L25.7520661,28.7580128 L38,21.3589744 Z M34.162928,16 C35.974026,16 37.5088548,17.2788462 37.8772137,18.9839744 L37.8772137,18.9839744 L25.0153483,26.7788462 L12.1227863,18.9839744 C12.4911452,17.2788462 14.025974,16 15.837072,16 L15.837072,16 Z" id="Menu/-Campaign-Invite"/>
            </g>
          </g>
        </g>
      </g>
    </g>
  </g>
</svg>
